<?xml version="1.0" encoding="UTF-8"?>
<svg id="Calque_1" data-name="Calque 1" xmlns="http://www.w3.org/2000/svg" viewBox="0 0 422.46 841.89">
  <defs>
    <style>
      .cls-1 {
        fill: #1d1d1b;
      }
    </style>
  </defs>
  <path class="cls-1" d="m196.13,171.46c-.07-12.64-1.37-25.25-3.88-37.64-1.52-8.28-3.93-16.38-7.2-24.16-7.22-18.21-25.27-29.78-44.84-28.72v-9.68c12.78-.02,25.5,1.79,37.76,5.39,10.15,3.02,19.77,7.56,28.56,13.47,10.36,7.17,18.9,16.66,24.94,27.72,8.83,16.48,13.33,34.93,13.07,53.63v621.21c0,18.01,7.52,35.19,20.75,47.42l1.93,1.77h-93.77l1.93-1.77c13.23-12.23,20.76-29.41,20.75-47.42V171.48l-.03-.02Z"/>
  <path class="cls-1" d="m351.19,35.63c0-19.68,15.96-35.63,35.64-35.63s35.63,15.96,35.63,35.63-15.96,35.63-35.63,35.63-35.64-15.95-35.64-35.63Z"/>
  <path class="cls-1" d="m0,806.26c0-19.68,15.96-35.63,35.64-35.63s35.63,15.96,35.63,35.63-15.96,35.63-35.63,35.63S0,825.94,0,806.26Z"/>
</svg>